<svg width="33" height="33" viewBox="0 0 33 33" fill="none" xmlns="http://www.w3.org/2000/svg">
<path d="M16.5 32C25.0604 32 32 25.0604 32 16.5C32 7.93959 25.0604 1 16.5 1C7.93959 1 1 7.93959 1 16.5C1 25.0604 7.93959 32 16.5 32Z" stroke="#31CE09"/>
<path d="M19.5 6.5C19.5 4.84315 18.1569 3.5 16.5 3.5C14.8431 3.5 13.5 4.84315 13.5 6.5V20.5C13.5 22.1569 14.8431 23.5 16.5 23.5C18.1569 23.5 19.5 22.1569 19.5 20.5V6.5Z" fill="#31CE09"/>
<path d="M17 24.5H16C14.6193 24.5 13.5 25.6193 13.5 27C13.5 28.3807 14.6193 29.5 16 29.5H17C18.3807 29.5 19.5 28.3807 19.5 27C19.5 25.6193 18.3807 24.5 17 24.5Z" fill="#31CE09"/>
</svg>
